<svg width="103" height="125" viewBox="0 0 103 125" fill="none" xmlns="http://www.w3.org/2000/svg">
<path d="M37.7049 100.707C38.7761 100.967 39.7303 101.576 40.4177 102.438C41.1052 103.299 41.4868 104.365 41.5026 105.467V114.79C41.5026 117.38 42.5313 119.863 44.3626 121.695C46.1938 123.526 48.6775 124.555 51.2673 124.555C53.857 124.555 56.3407 123.526 58.172 121.695C60.0032 119.863 61.032 117.38 61.032 114.79V105.461C61.0201 104.406 61.3562 103.377 61.9884 102.532C62.6206 101.687 63.5136 101.074 64.5293 100.788C76.5312 97.5734 86.9573 90.1097 93.8689 79.7847C100.781 69.4596 103.707 56.9759 102.105 44.6547C100.503 32.3336 94.48 21.0138 85.1574 12.8C75.8347 4.58631 63.8463 0.0377746 51.4215 0.000234234C38.9967 -0.0373061 26.981 4.4387 17.6089 12.5959C8.23675 20.7532 2.14597 32.0365 0.469142 44.3477C-1.20769 56.6589 1.64356 69.1601 8.49268 79.5267C15.3418 89.8934 25.7227 97.4199 37.7049 100.707ZM48.7307 5.00498C49.5889 4.95963 50.4432 4.93695 51.2935 4.93695C62.5416 4.93634 73.4063 9.02578 81.8624 16.443C90.3184 23.8603 95.789 34.0993 97.2543 45.2516C98.7197 56.4039 96.0799 67.7085 89.827 77.0585C83.574 86.4085 74.1346 93.1658 63.2681 96.0709C61.2143 96.636 59.404 97.8622 58.1172 99.5597C56.8305 101.257 56.1389 103.331 56.1496 105.461V114.79C56.1496 116.085 55.6352 117.327 54.7196 118.242C53.804 119.158 52.5621 119.672 51.2673 119.672C49.9724 119.672 48.7305 119.158 47.8149 118.242C46.8993 117.327 46.3849 116.085 46.3849 114.79V105.467C46.3571 103.298 45.6192 101.197 44.284 99.4873C42.9489 97.7771 41.0901 96.5516 38.9923 95.9983C29.3347 93.3195 20.7994 87.5957 14.6552 79.6777C8.51113 71.7597 5.08626 62.0703 4.8898 52.05C4.79643 40.0897 9.2886 28.5481 17.4428 19.798C25.597 11.0478 36.7936 5.75411 48.7307 5.00498Z" fill="url(#paint0_linear_5_14)"/>
<path d="M51.2673 87.9369C58.5095 87.9369 65.5892 85.7894 71.6109 81.7658C77.6327 77.7422 82.326 72.0233 85.0975 65.3323C87.8691 58.6413 88.5942 51.2787 87.1813 44.1755C85.7684 37.0724 82.2809 30.5478 77.1598 25.4267C72.0388 20.3056 65.5141 16.8182 58.411 15.4053C51.3079 13.9924 43.9453 14.7175 37.2543 17.489C30.5633 20.2605 24.8444 24.9539 20.8208 30.9756C16.7972 36.9974 14.6496 44.077 14.6496 51.3193C14.6604 61.0276 18.5218 70.3351 25.3866 77.1999C32.2514 84.0647 41.559 87.9261 51.2673 87.9369ZM51.2673 19.584C57.5439 19.584 63.6796 21.4452 68.8984 24.9324C74.1173 28.4195 78.1849 33.3759 80.5868 39.1747C82.9888 44.9736 83.6173 51.3545 82.3928 57.5105C81.1683 63.6666 78.1458 69.3213 73.7075 73.7595C69.2692 78.1978 63.6146 81.2203 57.4585 82.4448C51.3025 83.6693 44.9216 83.0408 39.1227 80.6389C33.3238 78.2369 28.3675 74.1693 24.8803 68.9505C21.3932 63.7316 19.532 57.5959 19.532 51.3193C19.5415 42.9055 22.8881 34.839 28.8375 28.8896C34.787 22.9401 42.8535 19.5935 51.2673 19.584Z" fill="url(#paint1_linear_5_14)"/>
<path d="M36.6202 55.855V65.9664C36.6202 66.6138 36.8774 67.2347 37.3352 67.6925C37.793 68.1503 38.4139 68.4075 39.0614 68.4075C39.7088 68.4075 40.3297 68.1503 40.7876 67.6925C41.2454 67.2347 41.5026 66.6138 41.5026 65.9664V55.855C43.5934 55.3169 45.4467 54.1004 46.7719 52.3961C48.0972 50.6917 48.8197 48.5959 48.8261 46.4369C48.8261 41.5772 44.9307 34.2311 39.0614 34.2311C33.1921 34.2311 29.2967 41.5772 29.2967 46.4369C29.3031 48.5959 30.0255 50.6917 31.3508 52.3961C32.6761 54.1004 34.5294 55.3169 36.6202 55.855ZM39.0614 39.1134C41.4191 39.1134 43.9437 43.4117 43.9437 46.4369C43.9437 47.7318 43.4293 48.9737 42.5137 49.8893C41.5981 50.8049 40.3563 51.3193 39.0614 51.3193C37.7665 51.3193 36.5247 50.8049 35.609 49.8893C34.6934 48.9737 34.179 47.7318 34.179 46.4369C34.179 43.4117 36.7036 39.1134 39.0614 39.1134Z" fill="url(#paint2_linear_5_14)"/>
<path d="M61.032 50.9726V65.9664C61.032 66.6138 61.2892 67.2347 61.747 67.6925C62.2048 68.1503 62.8257 68.4075 63.4731 68.4075C64.1206 68.4075 64.7415 68.1503 65.1993 67.6925C65.6571 67.2347 65.9143 66.6138 65.9143 65.9664V50.9726C68.0052 50.4346 69.8584 49.218 71.1837 47.5137C72.509 45.8094 73.2315 43.7136 73.2379 41.5546V36.6722C73.2379 36.0248 72.9807 35.4039 72.5228 34.9461C72.065 34.4883 71.4441 34.2311 70.7967 34.2311C70.1492 34.2311 69.5283 34.4883 69.0705 34.9461C68.6127 35.4039 68.3555 36.0248 68.3555 36.6722V41.5546C68.3527 42.4077 68.1257 43.2451 67.6973 43.9827C67.2688 44.7204 66.6539 45.3325 65.9143 45.7577V36.6722C65.9143 36.0248 65.6571 35.4039 65.1993 34.9461C64.7415 34.4883 64.1206 34.2311 63.4731 34.2311C62.8257 34.2311 62.2048 34.4883 61.747 34.9461C61.2892 35.4039 61.032 36.0248 61.032 36.6722V45.7577C60.2924 45.3325 59.6775 44.7204 59.249 43.9827C58.8206 43.2451 58.5936 42.4077 58.5908 41.5546V36.6722C58.5908 36.0248 58.3336 35.4039 57.8758 34.9461C57.418 34.4883 56.7971 34.2311 56.1496 34.2311C55.5022 34.2311 54.8813 34.4883 54.4234 34.9461C53.9656 35.4039 53.7084 36.0248 53.7084 36.6722V41.5546C53.7148 43.7136 54.4373 45.8094 55.7626 47.5137C57.0879 49.218 58.9411 50.4346 61.032 50.9726Z" fill="url(#paint3_linear_5_14)"/>
<defs>
<linearGradient id="paint0_linear_5_14" x1="51.2666" y1="0" x2="51.2666" y2="124.555" gradientUnits="userSpaceOnUse">
<stop stop-color="#520C61"/>
<stop offset="1" stop-color="#3A0580"/>
</linearGradient>
<linearGradient id="paint1_linear_5_14" x1="51.2673" y1="14.7016" x2="51.2673" y2="87.9369" gradientUnits="userSpaceOnUse">
<stop stop-color="#520C61"/>
<stop offset="1" stop-color="#3A0580"/>
</linearGradient>
<linearGradient id="paint2_linear_5_14" x1="39.0614" y1="34.2311" x2="39.0614" y2="68.4075" gradientUnits="userSpaceOnUse">
<stop stop-color="#520C61"/>
<stop offset="1" stop-color="#3A0580"/>
</linearGradient>
<linearGradient id="paint3_linear_5_14" x1="63.4731" y1="34.2311" x2="63.4731" y2="68.4075" gradientUnits="userSpaceOnUse">
<stop stop-color="#520C61"/>
<stop offset="1" stop-color="#3A0580"/>
</linearGradient>
</defs>
</svg>
